<svg width="14" height="9" viewBox="0 0 14 9" fill="none" xmlns="http://www.w3.org/2000/svg">
<path d="M9.08471 8.4317C9.32877 8.67576 9.72452 8.67576 9.96859 8.4317L13.0232 5.37408C13.511 4.88583 13.5108 4.0947 13.0228 3.6067L9.96634 0.550244C9.72227 0.306169 9.32652 0.306169 9.08246 0.550244C8.8384 0.794325 8.8384 1.19005 9.08246 1.43413L11.6985 4.05014C11.9426 4.29426 11.9426 4.68995 11.6985 4.93401L9.08471 7.54782C8.84065 7.79189 8.84065 8.18764 9.08471 8.4317Z" fill="#686F83"/>
<path d="M4.92922 0.550244C4.68514 0.306169 4.28942 0.306169 4.04534 0.550244L0.990681 3.60789C0.502936 4.09614 0.50313 4.88726 0.991119 5.3752L4.04759 8.4317C4.29167 8.67576 4.6874 8.67576 4.93148 8.4317C5.17556 8.18764 5.17556 7.79189 4.93148 7.54782L2.31544 4.93176C2.07137 4.6877 2.07137 4.29195 2.31545 4.04789L4.92922 1.43413C5.1733 1.19005 5.1733 0.794325 4.92922 0.550244Z" fill="#686F83"/>
</svg>
