<svg width="10" height="15" viewBox="0 0 10 15" fill="none" xmlns="http://www.w3.org/2000/svg">
<rect x="0.976562" y="12.7734" width="0.976391" height="1.95292" fill="black"/>
<rect x="1.95312" y="10.8184" width="0.976391" height="1.95292" fill="black"/>
<rect x="2.92969" y="8.86719" width="0.976391" height="1.95292" fill="black"/>
<rect x="4.88184" y="7.89062" width="0.97646" height="4.88196" transform="rotate(90 4.88184 7.89062)" fill="black"/>
<rect x="2.92969" y="13.75" width="0.97646" height="1.95278" transform="rotate(90 2.92969 13.75)" fill="black"/>
<rect x="9.76465" y="7.89062" width="0.976392" height="2.92938" transform="rotate(-180 9.76465 7.89062)" fill="black"/>
<rect x="9.76465" y="3.00781" width="0.976392" height="1.95292" transform="rotate(-180 9.76465 3.00781)" fill="black"/>
<rect x="5.8584" y="5.9375" width="0.97646" height="3.90557" transform="rotate(-90 5.8584 5.9375)" fill="black"/>
<rect x="3.90625" y="12.7734" width="0.97646" height="0.976391" transform="rotate(90 3.90625 12.7734)" fill="black"/>
<rect x="4.88184" y="11.7949" width="0.97646" height="0.976391" transform="rotate(90 4.88184 11.7949)" fill="black"/>
<rect x="5.8584" y="10.8184" width="0.97646" height="0.976391" transform="rotate(90 5.8584 10.8184)" fill="black"/>
<rect x="6.83496" y="9.84375" width="0.97646" height="0.976391" transform="rotate(90 6.83496 9.84375)" fill="black"/>
<rect x="7.81152" y="8.86719" width="0.97646" height="0.976391" transform="rotate(90 7.81152 8.86719)" fill="black"/>
<rect x="8.78711" y="7.89062" width="0.97646" height="0.976391" transform="rotate(90 8.78711 7.89062)" fill="black"/>
<rect x="8.78711" y="6.91406" width="0.97646" height="0.976391" transform="rotate(90 8.78711 6.91406)" fill="#DF8B32"/>
<rect x="5.8584" y="4.96094" width="0.97646" height="0.976391" transform="rotate(90 5.8584 4.96094)" fill="#DF8B32"/>
<rect x="6.83496" y="3.98438" width="0.97646" height="0.976391" transform="rotate(90 6.83496 3.98438)" fill="#DF8B32"/>
<rect x="7.81152" y="3.00781" width="0.97646" height="0.976391" transform="rotate(90 7.81152 3.00781)" fill="#DF8B32"/>
<rect x="8.78711" y="1.05469" width="1.95292" height="0.976391" transform="rotate(90 8.78711 1.05469)" fill="#DF8B32"/>
<rect x="7.81152" y="7.89062" width="0.97646" height="0.976391" transform="rotate(90 7.81152 7.89062)" fill="#DF8B32"/>
<rect x="6.83496" y="8.86719" width="0.97646" height="0.976391" transform="rotate(90 6.83496 8.86719)" fill="#DF8B32"/>
<rect x="5.8584" y="9.84375" width="0.97646" height="0.976391" transform="rotate(90 5.8584 9.84375)" fill="#DF8B32"/>
<rect x="4.88184" y="10.8184" width="0.97646" height="0.976391" transform="rotate(90 4.88184 10.8184)" fill="#DF8B32"/>
<rect x="3.90625" y="10.8184" width="1.95292" height="0.976391" transform="rotate(90 3.90625 10.8184)" fill="#FDF4CF"/>
<rect x="4.88184" y="8.86719" width="1.95292" height="0.976391" transform="rotate(90 4.88184 8.86719)" fill="#FDF4CF"/>
<rect x="2.92969" y="12.7734" width="0.97646" height="0.976391" transform="rotate(90 2.92969 12.7734)" fill="#FDF4CF"/>
<rect x="8.78711" y="3.00781" width="0.97646" height="0.976391" transform="rotate(90 8.78711 3.00781)" fill="black"/>
<rect x="7.81152" y="3.98438" width="0.97646" height="0.976391" transform="rotate(90 7.81152 3.98438)" fill="black"/>
<rect y="5.9375" width="0.976391" height="1.95292" fill="black"/>
<rect x="0.976562" y="5.9375" width="0.976391" height="1.95292" fill="#FDF4CF"/>
<rect x="8.78711" y="5.9375" width="0.97646" height="1.95278" transform="rotate(90 8.78711 5.9375)" fill="#FDF4CF"/>
<rect x="1.95312" y="3.98438" width="0.976391" height="1.95292" fill="#FDF4CF"/>
<rect x="2.92969" y="2.03125" width="0.976391" height="1.95292" fill="#FDF4CF"/>
<rect x="0.976562" y="3.98438" width="0.976391" height="1.95292" fill="black"/>
<rect x="1.95331" y="2.03101" width="0.976391" height="1.95292" fill="black"/>
<rect x="2.92969" y="0.078125" width="0.976391" height="1.95292" fill="black"/>
<rect x="9.76453" y="0.078125" width="0.97646" height="6.83474" transform="rotate(90 9.76453 0.078125)" fill="black"/>
<rect x="3.90625" y="1.05469" width="3.90557" height="1.95292" fill="#F7CE46"/>
<rect x="3.90625" y="3.00781" width="2.92917" height="0.97646" fill="#F7CE46"/>
<rect x="2.92969" y="3.98438" width="2.92917" height="0.97646" fill="#F7CE46"/>
<rect x="2.92969" y="4.96094" width="1.95278" height="0.97646" fill="#F7CE46"/>
<rect x="1.95312" y="5.9375" width="4.88196" height="0.97646" fill="#F7CE46"/>
<rect x="1.95312" y="6.91406" width="5.85835" height="0.97646" fill="#F7CE46"/>
<rect x="4.88184" y="7.89062" width="1.95278" height="0.97646" fill="#F7CE46"/>
<rect x="4.88184" y="8.86719" width="0.976391" height="0.97646" fill="#F7CE46"/>
</svg>
