<svg width="8" height="8" viewBox="0 0 8 8" fill="none" xmlns="http://www.w3.org/2000/svg">
<path fill-rule="evenodd" clip-rule="evenodd" d="M4 0.25C5.86398 0.25 7.375 1.76104 7.375 3.625V6.35776C7.375 7.04397 6.63779 7.47777 6.03794 7.14451L5.90202 7.07164C5.5273 6.87965 5.23307 6.81642 4.81865 7.02877L4.74423 7.06914C4.30867 7.31801 3.77953 7.33184 3.33357 7.11062L3.25577 7.06914C2.77683 6.79546 2.44336 6.8771 1.96208 7.14451C1.3622 7.47777 0.625 7.04397 0.625 6.35776V3.625C0.625 1.76104 2.13604 0.25 4 0.25ZM2.6875 2.875C2.37684 2.875 2.125 3.12684 2.125 3.4375C2.125 3.74815 2.37684 4 2.6875 4C2.99816 4 3.25 3.74815 3.25 3.4375C3.25 3.12684 2.99816 2.875 2.6875 2.875ZM5.3125 2.875C5.00185 2.875 4.75 3.12684 4.75 3.4375C4.75 3.74815 5.00185 4 5.3125 4C5.62315 4 5.875 3.74815 5.875 3.4375C5.875 3.12684 5.62315 2.875 5.3125 2.875Z" fill="#64647D"/>
</svg>
