<svg width="15" height="15" viewBox="0 0 15 15" fill="none" xmlns="http://www.w3.org/2000/svg">
<rect x="5.19788" y="13.748" width="4.25224" height="0.97644" fill="black"/>
<rect x="5.19788" y="0.078125" width="4.25224" height="0.97644" fill="black"/>
<rect x="0.944946" y="4.96094" width="4.8822" height="0.944941" transform="rotate(90 0.944946 4.96094)" fill="black"/>
<rect width="4.8822" height="0.944941" transform="matrix(4.23014e-08 1 1 -4.51683e-08 13.7018 4.96094)" fill="black"/>
<rect x="2.83557" y="12.7734" width="2.36235" height="0.97644" fill="black"/>
<rect width="2.36235" height="0.97644" transform="matrix(-1 0 0 1 11.8102 12.7734)" fill="black"/>
<rect x="2.83557" y="1.05469" width="2.36235" height="0.97644" fill="black"/>
<rect width="2.36235" height="0.97644" transform="matrix(-1 0 0 1 11.8112 1.05469)" fill="black"/>
<rect x="1.89026" y="11.7969" width="0.944941" height="0.97644" fill="black"/>
<rect width="0.944941" height="0.97644" transform="matrix(-1 0 0 1 12.7565 11.7969)" fill="black"/>
<rect x="1.89026" y="2.03125" width="0.944941" height="0.97644" fill="black"/>
<rect width="0.944941" height="0.97644" transform="matrix(-1 0 0 1 12.7565 2.03125)" fill="black"/>
<rect x="0.945007" y="10.8184" width="0.944943" height="0.97644" fill="black"/>
<rect x="0.944946" y="9.8418" width="0.944943" height="0.97644" fill="black"/>
<rect width="0.944943" height="0.97644" transform="matrix(-1 0 0 1 13.702 10.8184)" fill="black"/>
<rect width="0.944943" height="0.97644" transform="matrix(-1 0 0 1 13.7018 9.8418)" fill="black"/>
<rect x="0.945007" y="3.98425" width="0.944943" height="0.97644" fill="black"/>
<rect x="0.944946" y="3.00781" width="0.944943" height="0.97644" fill="black"/>
<rect width="0.944943" height="0.97644" transform="matrix(-1 0 0 1 13.702 3.98425)" fill="black"/>
<rect width="0.944943" height="0.97644" transform="matrix(-1 0 0 1 13.7018 3.00781)" fill="black"/>
<rect x="5.19788" y="12.7734" width="4.25224" height="0.97644" fill="#DF8B32"/>
<rect x="5.19788" y="1.05469" width="4.25224" height="0.97644" fill="#FDF4CF"/>
<rect x="2.83557" y="11.7969" width="2.36235" height="0.97644" fill="#DF8B32"/>
<rect x="2.83557" y="2.03125" width="2.36235" height="0.97644" fill="#FDF4CF"/>
<rect width="2.36235" height="0.97644" transform="matrix(-1 0 0 1 11.8102 11.7969)" fill="#DF8B32"/>
<rect width="4.25224" height="0.97644" transform="matrix(-1 0 0 1 9.44983 11.7969)" fill="#F7CE46"/>
<rect width="4.25224" height="0.97644" transform="matrix(-1 0 0 1 9.44983 2.03125)" fill="#F7CE46"/>
<rect width="8.97694" height="0.97644" transform="matrix(-1 0 0 1 11.8112 10.8184)" fill="#F7CE46"/>
<rect width="8.97694" height="0.97644" transform="matrix(-1 0 0 1 11.8112 3.00781)" fill="#F7CE46"/>
<rect width="10.8668" height="0.97644" transform="matrix(-1 0 0 1 12.7565 9.8418)" fill="#F7CE46"/>
<rect width="10.8668" height="0.97644" transform="matrix(-1 0 0 1 12.7565 3.98438)" fill="#F7CE46"/>
<rect width="12.7567" height="4.8822" transform="matrix(-1 0 0 1 13.7018 4.96094)" fill="#F7CE46"/>
<rect width="2.36235" height="0.97644" transform="matrix(-1 0 0 1 11.8112 2.03125)" fill="#FDF4CF"/>
<rect x="1.89026" y="10.8184" width="0.944941" height="0.97644" fill="#DF8B32"/>
<rect x="1.89026" y="3.00781" width="0.944941" height="0.97644" fill="#FDF4CF"/>
<rect width="0.944941" height="0.97644" transform="matrix(-1 0 0 1 12.7565 10.8184)" fill="#DF8B32"/>
<rect width="0.944941" height="0.97644" transform="matrix(-1 0 0 1 12.7565 3.00781)" fill="#FDF4CF"/>
<rect x="5.66956" y="11.3086" width="3.3073" height="0.48822" fill="#DF8B32"/>
<rect x="4.25256" y="9.8418" width="6.14212" height="0.97644" fill="#412414"/>
<rect x="3.30725" y="8.86719" width="0.944941" height="0.97644" fill="#412414"/>
<rect x="0.944946" y="3.98438" width="12.2842" height="1.46466" fill="black"/>
<rect x="4.72424" y="4.96094" width="1.41741" height="2.4411" fill="black"/>
<rect x="1.89026" y="4.96094" width="0.944941" height="2.4411" fill="black"/>
<rect x="2.83557" y="6.91406" width="3.3073" height="1.46466" fill="black"/>
<rect x="3.78009" y="5.9375" width="1.41741" height="1.46466" fill="black"/>
<rect x="5.19788" y="4.96094" width="1.41741" height="2.4411" fill="black"/>
<rect x="2.83557" y="4.96094" width="0.944941" height="1.95288" fill="white"/>
<rect x="5.19788" y="4.96094" width="0.97644" height="1.88988" transform="rotate(90 5.19788 4.96094)" fill="white"/>
<rect x="8.03186" y="4.96094" width="0.944941" height="2.4411" fill="black"/>
<rect x="8.9762" y="6.91406" width="3.3073" height="1.46466" fill="black"/>
<rect x="9.92151" y="5.9375" width="1.41741" height="1.46466" fill="black"/>
<rect x="11.3395" y="4.96094" width="1.41741" height="2.4411" fill="black"/>
<rect x="8.9762" y="4.96094" width="0.944941" height="1.95288" fill="white"/>
<rect x="11.3395" y="4.96094" width="0.97644" height="1.88988" transform="rotate(90 11.3395 4.96094)" fill="white"/>
</svg>
