<svg width="26" height="6" viewBox="0 0 26 6" fill="none" xmlns="http://www.w3.org/2000/svg">
<g opacity="0.34">
<path d="M24.3705 5.55C24.1238 5.55 23.9138 5.47 23.7405 5.31C23.5671 5.14333 23.4805 4.94333 23.4805 4.71C23.4805 4.47667 23.5671 4.28 23.7405 4.12C23.9138 3.96 24.1238 3.88 24.3705 3.88C24.6238 3.88 24.8338 3.96 25.0005 4.12C25.1738 4.28 25.2605 4.47667 25.2605 4.71C25.2605 4.94333 25.1738 5.14333 25.0005 5.31C24.8338 5.47 24.6238 5.55 24.3705 5.55ZM24.3705 1.67C24.1238 1.67 23.9138 1.59 23.7405 1.43C23.5671 1.26333 23.4805 1.06333 23.4805 0.83C23.4805 0.596666 23.5671 0.4 23.7405 0.24C23.9138 0.0799998 24.1238 0 24.3705 0C24.6238 0 24.8338 0.0799998 25.0005 0.24C25.1738 0.4 25.2605 0.596666 25.2605 0.83C25.2605 1.06333 25.1738 1.26333 25.0005 1.43C24.8338 1.59 24.6238 1.67 24.3705 1.67Z" fill="#686F83"/>
<path d="M19.6744 5.55C19.4277 5.55 19.2177 5.47 19.0444 5.31C18.871 5.14333 18.7844 4.94333 18.7844 4.71C18.7844 4.47667 18.871 4.28 19.0444 4.12C19.2177 3.96 19.4277 3.88 19.6744 3.88C19.9277 3.88 20.1377 3.96 20.3044 4.12C20.4777 4.28 20.5644 4.47667 20.5644 4.71C20.5644 4.94333 20.4777 5.14333 20.3044 5.31C20.1377 5.47 19.9277 5.55 19.6744 5.55ZM19.6744 1.67C19.4277 1.67 19.2177 1.59 19.0444 1.43C18.871 1.26333 18.7844 1.06333 18.7844 0.83C18.7844 0.596666 18.871 0.4 19.0444 0.24C19.2177 0.0799998 19.4277 0 19.6744 0C19.9277 0 20.1377 0.0799998 20.3044 0.24C20.4777 0.4 20.5644 0.596666 20.5644 0.83C20.5644 1.06333 20.4777 1.26333 20.3044 1.43C20.1377 1.59 19.9277 1.67 19.6744 1.67Z" fill="#686F83"/>
<path d="M14.9783 5.55C14.7316 5.55 14.5216 5.47 14.3483 5.31C14.1749 5.14333 14.0883 4.94333 14.0883 4.71C14.0883 4.47667 14.1749 4.28 14.3483 4.12C14.5216 3.96 14.7316 3.88 14.9783 3.88C15.2316 3.88 15.4416 3.96 15.6083 4.12C15.7816 4.28 15.8683 4.47667 15.8683 4.71C15.8683 4.94333 15.7816 5.14333 15.6083 5.31C15.4416 5.47 15.2316 5.55 14.9783 5.55ZM14.9783 1.67C14.7316 1.67 14.5216 1.59 14.3483 1.43C14.1749 1.26333 14.0883 1.06333 14.0883 0.83C14.0883 0.596666 14.1749 0.4 14.3483 0.24C14.5216 0.0799998 14.7316 0 14.9783 0C15.2316 0 15.4416 0.0799998 15.6083 0.24C15.7816 0.4 15.8683 0.596666 15.8683 0.83C15.8683 1.06333 15.7816 1.26333 15.6083 1.43C15.4416 1.59 15.2316 1.67 14.9783 1.67Z" fill="#686F83"/>
<path d="M10.2822 5.55C10.0355 5.55 9.82555 5.47 9.65221 5.31C9.47888 5.14333 9.39221 4.94333 9.39221 4.71C9.39221 4.47667 9.47888 4.28 9.65221 4.12C9.82555 3.96 10.0355 3.88 10.2822 3.88C10.5355 3.88 10.7455 3.96 10.9122 4.12C11.0855 4.28 11.1722 4.47667 11.1722 4.71C11.1722 4.94333 11.0855 5.14333 10.9122 5.31C10.7455 5.47 10.5355 5.55 10.2822 5.55ZM10.2822 1.67C10.0355 1.67 9.82555 1.59 9.65221 1.43C9.47888 1.26333 9.39221 1.06333 9.39221 0.83C9.39221 0.596666 9.47888 0.4 9.65221 0.24C9.82555 0.0799998 10.0355 0 10.2822 0C10.5355 0 10.7455 0.0799998 10.9122 0.24C11.0855 0.4 11.1722 0.596666 11.1722 0.83C11.1722 1.06333 11.0855 1.26333 10.9122 1.43C10.7455 1.59 10.5355 1.67 10.2822 1.67Z" fill="#686F83"/>
<path d="M5.58611 5.55C5.33944 5.55 5.12944 5.47 4.95611 5.31C4.78277 5.14333 4.69611 4.94333 4.69611 4.71C4.69611 4.47667 4.78277 4.28 4.95611 4.12C5.12944 3.96 5.33944 3.88 5.58611 3.88C5.83944 3.88 6.04944 3.96 6.21611 4.12C6.38944 4.28 6.47611 4.47667 6.47611 4.71C6.47611 4.94333 6.38944 5.14333 6.21611 5.31C6.04944 5.47 5.83944 5.55 5.58611 5.55ZM5.58611 1.67C5.33944 1.67 5.12944 1.59 4.95611 1.43C4.78277 1.26333 4.69611 1.06333 4.69611 0.83C4.69611 0.596666 4.78277 0.4 4.95611 0.24C5.12944 0.0799998 5.33944 0 5.58611 0C5.83944 0 6.04944 0.0799998 6.21611 0.24C6.38944 0.4 6.47611 0.596666 6.47611 0.83C6.47611 1.06333 6.38944 1.26333 6.21611 1.43C6.04944 1.59 5.83944 1.67 5.58611 1.67Z" fill="#686F83"/>
<path d="M0.89 5.55C0.643333 5.55 0.433333 5.47 0.26 5.31C0.0866666 5.14333 0 4.94333 0 4.71C0 4.47667 0.0866666 4.28 0.26 4.12C0.433333 3.96 0.643333 3.88 0.89 3.88C1.14333 3.88 1.35333 3.96 1.52 4.12C1.69333 4.28 1.78 4.47667 1.78 4.71C1.78 4.94333 1.69333 5.14333 1.52 5.31C1.35333 5.47 1.14333 5.55 0.89 5.55ZM0.89 1.67C0.643333 1.67 0.433333 1.59 0.26 1.43C0.0866666 1.26333 0 1.06333 0 0.83C0 0.596666 0.0866666 0.4 0.26 0.24C0.433333 0.0799998 0.643333 0 0.89 0C1.14333 0 1.35333 0.0799998 1.52 0.24C1.69333 0.4 1.78 0.596666 1.78 0.83C1.78 1.06333 1.69333 1.26333 1.52 1.43C1.35333 1.59 1.14333 1.67 0.89 1.67Z" fill="#686F83"/>
</g>
</svg>
