<svg width="15" height="15" viewBox="0 0 15 15" fill="none" xmlns="http://www.w3.org/2000/svg">
<rect x="5.1969" y="13.748" width="4.25217" height="0.976439" fill="black"/>
<rect x="5.1969" y="0.078125" width="4.25217" height="0.976439" fill="black"/>
<rect x="0.944946" y="4.96094" width="4.8822" height="0.944928" transform="rotate(90 0.944946 4.96094)" fill="black"/>
<rect width="4.8822" height="0.944928" transform="matrix(4.23007e-08 1 1 -4.51691e-08 13.7018 4.96094)" fill="black"/>
<rect x="2.83459" y="12.7715" width="2.36232" height="0.976439" fill="black"/>
<rect width="2.36232" height="0.976439" transform="matrix(-1 0 0 1 11.8112 12.7715)" fill="black"/>
<rect x="2.83362" y="1.05469" width="2.36232" height="0.976439" fill="black"/>
<rect width="2.36232" height="0.976439" transform="matrix(-1 0 0 1 11.8102 1.05469)" fill="black"/>
<rect x="1.89026" y="11.7949" width="0.944928" height="0.976439" fill="black"/>
<rect width="0.944928" height="0.976439" transform="matrix(-1 0 0 1 12.7565 11.7949)" fill="black"/>
<rect x="1.89026" y="2.03125" width="0.944928" height="0.976439" fill="black"/>
<rect width="0.944928" height="0.976439" transform="matrix(-1 0 0 1 12.7565 2.03125)" fill="black"/>
<rect x="0.944763" y="10.8184" width="0.944928" height="0.976439" fill="black"/>
<rect x="0.944946" y="9.8418" width="0.944928" height="0.976439" fill="black"/>
<rect width="0.944928" height="0.976439" transform="matrix(-1 0 0 1 13.7017 10.8184)" fill="black"/>
<rect width="0.944928" height="0.976439" transform="matrix(-1 0 0 1 13.7018 9.8418)" fill="black"/>
<rect x="0.944763" y="3.98425" width="0.944928" height="0.976439" fill="black"/>
<rect x="0.944946" y="3.00781" width="0.944928" height="0.976439" fill="black"/>
<rect width="0.944928" height="0.976439" transform="matrix(-1 0 0 1 13.7017 3.98425)" fill="black"/>
<rect width="0.944928" height="0.976439" transform="matrix(-1 0 0 1 13.7018 3.00781)" fill="black"/>
<rect x="5.1969" y="12.7715" width="4.25217" height="0.976439" fill="#DF8B32"/>
<rect x="5.1969" y="1.05469" width="4.25217" height="0.976439" fill="#FDF4CF"/>
<rect x="2.83459" y="11.7949" width="2.36232" height="0.976439" fill="#DF8B32"/>
<rect x="2.83459" y="2.03125" width="2.36232" height="0.976439" fill="#FDF4CF"/>
<rect width="2.36232" height="0.976439" transform="matrix(-1 0 0 1 11.8112 11.7949)" fill="#DF8B32"/>
<rect width="4.25217" height="0.976439" transform="matrix(-1 0 0 1 9.44885 11.7949)" fill="#F7CE46"/>
<rect width="4.25217" height="0.976439" transform="matrix(-1 0 0 1 9.44885 2.03125)" fill="#F7CE46"/>
<rect width="8.97681" height="0.976439" transform="matrix(-1 0 0 1 11.8112 10.8203)" fill="#F7CE46"/>
<rect width="8.97681" height="0.976439" transform="matrix(-1 0 0 1 11.8112 3.00781)" fill="#F7CE46"/>
<rect width="10.8667" height="0.976439" transform="matrix(-1 0 0 1 12.7565 9.8418)" fill="#F7CE46"/>
<rect width="10.8667" height="0.976439" transform="matrix(-1 0 0 1 12.7565 3.98438)" fill="#F7CE46"/>
<rect width="12.7565" height="4.8822" transform="matrix(-1 0 0 1 13.7018 4.96094)" fill="#F7CE46"/>
<rect width="2.36232" height="0.976439" transform="matrix(-1 0 0 1 11.8112 2.03125)" fill="#FDF4CF"/>
<rect x="1.89026" y="10.8203" width="0.944928" height="0.976439" fill="#DF8B32"/>
<rect x="1.89026" y="3.00781" width="0.944928" height="0.976439" fill="#FDF4CF"/>
<rect width="0.944928" height="0.976439" transform="matrix(-1 0 0 1 12.7565 10.8203)" fill="#DF8B32"/>
<rect width="0.944928" height="0.976439" transform="matrix(-1 0 0 1 12.7565 3.00781)" fill="#FDF4CF"/>
<rect x="6.14221" y="10.8203" width="2.36232" height="0.976439" fill="#981E20"/>
<rect x="5.1969" y="9.8418" width="4.25217" height="0.976439" fill="#981E20"/>
<rect x="4.25159" y="8.86523" width="6.14203" height="0.976439" fill="#981E20"/>
<rect x="4.25159" y="7.89062" width="6.14203" height="0.976439" fill="#981E20"/>
<rect x="2.83459" y="4.96094" width="0.944928" height="1.95288" fill="black"/>
<rect x="8.9762" y="4.96094" width="0.944928" height="1.95288" fill="black"/>
<rect x="4.72424" y="4.96094" width="0.976439" height="1.41739" transform="rotate(90 4.72424 4.96094)" fill="black"/>
<rect x="10.8668" y="4.96094" width="0.976439" height="1.41739" transform="rotate(90 10.8668 4.96094)" fill="black"/>
<rect x="5.66956" y="5.9375" width="0.976439" height="0.944928" transform="rotate(90 5.66956 5.9375)" fill="black"/>
<rect x="11.8112" y="5.9375" width="0.976439" height="0.944928" transform="rotate(90 11.8112 5.9375)" fill="black"/>
<rect x="6.14221" y="9.8418" width="2.36232" height="0.976439" fill="#EB4C44"/>
</svg>
