<svg width="12" height="10" viewBox="0 0 12 10" fill="none" xmlns="http://www.w3.org/2000/svg">
<path d="M1.94962 7.17715C2.02203 7.10474 2.12159 7.0625 2.22719 7.0625H11.8033C11.9783 7.0625 12.0658 7.27369 11.9421 7.39739L10.0504 9.28908C9.97797 9.36149 9.87841 9.40373 9.77281 9.40373H0.196716C0.0217275 9.40373 -0.0657668 9.19253 0.057932 9.06883L1.94962 7.17715Z" fill="white"/>
<path d="M1.94962 0.114648C2.02504 0.0422386 2.12461 0 2.22719 0H11.8033C11.9783 0 12.0658 0.211193 11.9421 0.334892L10.0504 2.22658C9.97797 2.29899 9.87841 2.34122 9.77281 2.34122H0.196716C0.0217275 2.34122 -0.0657668 2.13003 0.057932 2.00633L1.94962 0.114648Z" fill="white"/>
<path d="M10.0504 3.62441C9.97797 3.552 9.87841 3.50977 9.77281 3.50977H0.196716C0.0217275 3.50977 -0.0657668 3.72096 0.057932 3.84466L1.94962 5.73634C2.02203 5.80875 2.12159 5.85099 2.22719 5.85099H11.8033C11.9783 5.85099 12.0658 5.6398 11.9421 5.5161L10.0504 3.62441Z" fill="white"/>
</svg>
