<svg width="13" height="11" viewBox="0 0 13 11" fill="none" xmlns="http://www.w3.org/2000/svg">
<path d="M2.5 10.3389C1.8125 10.3389 1.22396 10.0957 0.734375 9.60936C0.244792 9.12298 0 8.53829 0 7.85528V2.88796C0 2.20495 0.244792 1.62026 0.734375 1.13387C1.22396 0.647489 1.8125 0.404297 2.5 0.404297H10C10.6875 0.404297 11.276 0.647489 11.7656 1.13387C12.2552 1.62026 12.5 2.20495 12.5 2.88796V7.85528C12.5 8.53829 12.2552 9.12298 11.7656 9.60936C11.276 10.0957 10.6875 10.3389 10 10.3389H2.5ZM2.5 2.88796H10C10.2292 2.88796 10.4479 2.91383 10.6562 2.96557C10.8646 3.01731 11.0625 3.1001 11.25 3.21394V2.88796C11.25 2.54645 11.1276 2.25411 10.8828 2.01091C10.638 1.76772 10.3437 1.64613 10 1.64613H2.5C2.15625 1.64613 1.86198 1.76772 1.61719 2.01091C1.3724 2.25411 1.25 2.54645 1.25 2.88796V3.21394C1.4375 3.1001 1.63542 3.01731 1.84375 2.96557C2.05208 2.91383 2.27083 2.88796 2.5 2.88796ZM1.34375 4.90593L8.29687 6.5824C8.39062 6.6031 8.48437 6.6031 8.57812 6.5824C8.67187 6.56171 8.76042 6.52031 8.84375 6.45822L11.0156 4.65757C10.901 4.50234 10.7552 4.37557 10.5781 4.27725C10.401 4.17894 10.2083 4.12979 10 4.12979H2.5C2.22917 4.12979 1.99219 4.19964 1.78906 4.33935C1.58594 4.47905 1.4375 4.66791 1.34375 4.90593Z" fill="#686F83"/>
</svg>
